<?xml version="1.0" encoding="UTF-8" standalone="no"?>
<!-- Created with Inkscape (http://www.inkscape.org/) -->

<svg
   width="120.86546mm"
   height="74.302742mm"
   viewBox="0 0 120.86546 74.302742"
   version="1.1"
   id="svg5"
   xml:space="preserve"
   inkscape:version="1.2.1 (9c6d41e, 2022-07-14)"
   sodipodi:docname="opener.svg"
   xmlns:inkscape="http://www.inkscape.org/namespaces/inkscape"
   xmlns:sodipodi="http://sodipodi.sourceforge.net/DTD/sodipodi-0.dtd"
   xmlns="http://www.w3.org/2000/svg"
   xmlns:svg="http://www.w3.org/2000/svg"><sodipodi:namedview
     id="namedview7"
     pagecolor="#ffffff"
     bordercolor="#666666"
     borderopacity="1.0"
     inkscape:showpageshadow="2"
     inkscape:pageopacity="0.0"
     inkscape:pagecheckerboard="0"
     inkscape:deskcolor="#d1d1d1"
     inkscape:document-units="mm"
     showgrid="false"
     inkscape:zoom="1.9300999"
     inkscape:cx="221.23207"
     inkscape:cy="153.35993"
     inkscape:window-width="1512"
     inkscape:window-height="916"
     inkscape:window-x="0"
     inkscape:window-y="38"
     inkscape:window-maximized="1"
     inkscape:current-layer="layer1" /><defs
     id="defs2" /><g
     inkscape:label="Ebene 1"
     inkscape:groupmode="layer"
     id="layer1"><g
       id="a-person/bust"
       style="fill:none;fill-rule:evenodd;stroke:none;stroke-width:1"
       transform="matrix(-0.26422073,-0.01384722,-0.01384722,0.26422073,132.41126,-2.3050378)"><g
         id="body/Sporty-Tee"
         transform="translate(31.056338,135.05284)"
         fill-rule="evenodd"><path
           d="m 24.149091,150.42654 c 2.52911,0.15634 5.058048,0.27986 7.58683,0.37412 33.069834,1.23267 66.112854,-2.53868 99.162259,-3.36388 11.50922,-0.30308 22.9595,-0.15175 34.43915,0.7727 1.12479,0.0905 2.41099,-1.12016 2.27282,-2.27371 -2.12092,-18.31435 -4.77423,-36.58009 -6.14937,-54.969674 -0.001,-0.972634 0.12444,-1.943788 0.45866,-2.860203 0.063,-0.07186 0.38958,-0.877527 0.68007,-0.927405 -0.0949,0.07017 0.33507,-0.05326 0.0613,-0.03213 1.65972,-0.271796 3.28754,-2.064046 2.0831,-3.779154 -12.40817,-19.025119 -29.34634,-36.38966 -34.79577,-58.98681 -1.28747,-6.109292 -5.93789,-6.486975 -10.89212,-9.007327 -1.54563,-0.919585 -5.32542,-3.467202 -5.94063,-5.238317 -1.4694,-6.3834091 1.11821,-12.6370529 -6.44158,-15.2199649 C 101.68325,-6.469348 92.862401,-7.6404399 87.812894,-6.1806434 81.653387,-4.1299115 82.114373,2.813791 78.541627,7.5909417 76.69386,10.354067 73.543834,14.137265 70.635066,14.560625 69.225295,14.765812 68.18693,11.913041 66.779303,12.1094 44.838317,17.440288 14.945218,53.806488 5.5150775,73.937603 3.3899366,80.273251 10.243606,78.361799 9.8225493,84.729783 9.3034648,96.810777 8.1681761,112.27655 8.8414859,124.37191 c 0.6306338,7.02021 0.1639437,14.37584 2.3452821,21.13207 -0.587113,0.7131 0.256479,1.43359 0.944788,1.74343 0.867254,1.47544 9.400775,2.97476 12.017535,3.17913 z"
           id="ðŸŽ¨-Background-7"
           fill="#ffffff" /><path
           d="M 81.271141,-0.01766888 C 81.841563,-2.5853636 85.925366,-1.4842286 85.22607,1.0728986 84.142268,5.027474 81.89438,8.7641472 78.721352,11.387004 c -2.450915,2.024736 -5.790845,3.83157 -9.103732,4.165503 0.310563,0.302443 0.60845,0.625808 0.921127,0.934168 0.705633,0.701683 1.455633,1.352642 2.228873,1.978239 1.588943,1.28501 3.240845,2.441096 5.04507,3.40908 7.206338,3.867922 15.34669,4.75982 23.39578,3.859257 3.81971,-0.426928 7.69647,-1.151648 11.28802,-2.548885 1.665,-0.64652 3.2831,-1.49636 4.71148,-2.569808 l 0.37377,-0.280703 c 0.75091,-0.567292 1.75302,-1.367701 2.2225,-2.242819 -1.42817,0.321041 -3.23451,-1.200681 -4.22535,-2.086028 -1.08359,-0.972211 -1.99648,-2.22573 -2.67042,-3.510739 -1.32043,-2.5211982 -2.01972,-5.7738792 -0.91247,-8.4772608 0.0737,-0.1796477 0.31035,-0.1498473 0.33148,0.044595 0.32746,3.1512329 1.17676,6.1059098 3.43753,8.4392168 1.00353,1.033503 2.20543,1.900039 3.5174,2.502177 l 0.18468,0.08485 c 0.55889,0.258679 1.14734,0.562092 1.38292,1.115618 0.0911,-0.01057 0.18169,-0.0021 0.26831,0.02135 0.0782,0.02092 0.15,0.04438 0.21972,0.06975 -0.15634,-0.306458 -0.23852,-0.667867 -0.22394,-1.095006 0.0551,-1.654872 2.32627,-1.705385 2.64084,-0.232274 -0.057,-0.194442 -0.1331,-0.0063 0.0106,0.05284 -0.002,-0.01717 -0.006,-0.0361 -0.0107,-0.05294 l 0.004,0.01558 v 0 l 0.009,0.03726 -0.002,1.06e-4 c 0.006,0.02663 0.0104,0.05439 0.0135,0.0824 l 0.003,0.03685 -0.002,-0.03086 c -0.002,-0.02281 -0.005,-0.04322 -0.008,-0.06181 l -0.005,-0.02658 c 0.0211,0.01036 0.0507,0.01691 0.0845,0.01691 l 0.014,0.0055 c 0.0529,0.02283 0.23959,0.109894 0.2947,0.131875 0.37796,0.139491 0.80049,0.183663 1.18711,0.304133 0.83895,0.258058 1.57838,0.684986 2.08965,1.41182 0.36761,0.522246 0.57232,1.120367 0.65683,1.741526 3.71197,1.786121 7.22535,4.106536 10.16852,6.978998 6.56831,6.40793 11.14838,14.428673 14.90683,22.730724 1.91291,4.226478 3.61762,8.542605 5.28492,12.870462 l 0.26297,0.683432 c 1.78732,4.651609 3.36782,9.354153 3.75634,14.354912 0.0359,0.448063 -0.11197,0.86865 -0.36761,1.217378 0.0909,0.376204 0.13754,0.752407 0.12465,1.119945 -0.002,0.05728 -0.006,0.114341 -0.0106,0.171405 0.6,-0.01057 1.18732,0.24094 1.74507,0.94685 0.22605,-0.07186 0.47112,-0.08052 0.71197,-0.0023 1.46831,0.469198 1.70493,2.082012 1.98169,3.43254 0.28542,1.394912 0.40986,2.82364 0.41197,4.245816 0,0.509566 -0.29155,1.15207 -0.78592,1.369761 -0.92957,0.409808 -1.93077,0.678435 -2.89225,1.050411 -0.72253,0.278983 -1.44718,0.54317 -2.17817,0.79045 0.40564,0.707812 0.53662,1.692916 0.75634,2.438983 0.34437,1.16454 0.62113,2.333307 0.85373,3.525323 1.57585,8.105285 2.6681,16.297225 4.14275,24.419415 0.73732,4.06849 1.59528,8.10951 2.46972,12.15053 0.43098,1.98669 0.88943,3.96894 1.38169,5.94296 0.26218,1.05252 0.5345,2.10526 0.81549,3.15123 0.0817,0.30575 0.16432,0.61057 0.24789,0.91507 l 0.14718,0.53289 v 0 c 0.32113,0.17753 0.59578,0.44595 0.78592,0.81349 0.69528,1.3444 0.29577,2.85978 -1.03733,3.61641 -1.44929,0.82427 -3.17936,0.0463 -3.97817,-1.29156 -0.56197,-0.94452 -0.74577,-2.19572 -1.02253,-3.24634 -0.31268,-1.17912 -0.61057,-2.3648 -0.89789,-3.55047 -1.95191,-8.0551 -3.25904,-16.25135 -4.24425,-24.47845 l -0.0698,-0.5877 c -0.50071,-4.23546 -0.98451,-8.48149 -1.29719,-12.73597 -0.15422,-2.09025 -0.27676,-4.180507 -0.35281,-6.2752 -0.038,-1.077675 0.0232,-2.161902 0.0845,-3.237887 0.0275,-0.471099 0.0676,-0.944735 0.0824,-1.415835 l 0.005,-0.06709 c 0.004,-0.04775 0.009,-0.110559 0.0138,-0.176466 l 0.005,-0.07981 c -1.45775,0.456516 -2.93662,0.836947 -4.43007,1.157988 -3.17768,0.686889 -6.42909,1.069644 -9.67205,0.875202 0.45212,5.372524 1.04155,10.732158 1.8655,16.056068 0.79436,5.12757 1.71127,10.24415 2.74648,15.32945 0.51781,2.55523 1.07746,5.10411 1.6669,7.64454 0.3169,1.35687 0.67817,2.70507 0.96359,4.06849 0.1688,0.81138 0.22162,1.48981 -0.11852,2.24877 0.37452,1.02025 0.70713,2.04573 1.03435,3.01135 l 0.098,0.28783 c 0.57888,1.6908 1.67747,3.41944 0.53028,5.08086 -0.59345,0.85787 -1.56105,1.34842 -2.53521,1.378 -0.0169,0.0104 -0.0359,0.0233 -0.0549,0.0336 -0.52394,0.28109 -1.12817,0.33626 -1.70281,0.21579 -0.87254,0.17098 -1.74719,0.33605 -2.62395,0.4861 -2.16549,0.37409 -4.34155,0.68245 -6.52183,0.94263 -4.15141,0.49434 -8.33028,0.76508 -12.50683,0.91514 -15.29176,0.55142 -30.60021,-0.41657 -45.897886,-0.13759 -7.793873,0.14161 -15.587535,0.49245 -23.368521,0.95763 -3.883099,0.23249 -7.76831,0.48188 -11.653521,0.67421 l -1.202601,0.0585 c -3.474505,0.16623 -6.951527,0.29473 -10.423455,0.0408 -0.06761,-0.004 -0.120423,-0.0319 -0.156338,-0.0697 -1.197888,-0.13527 -2.401902,-1.23873 -2.281691,-2.51296 0.517606,-5.42768 1.035212,-10.85495 1.55493,-16.28475 0.923239,-9.67329 1.85493,-19.34679 2.797183,-29.01839 l 0.136173,-1.39619 c 0.3166,-3.258857 0.618845,-6.525303 0.772278,-9.796926 -0.77324,-0.05474 -1.544155,-0.124485 -2.315493,-0.209237 C 28.448859,92.07812 20.437598,89.549571 12.745485,86.22808 l -0.311668,-0.135087 c -0.692958,-0.302443 -1.451408,-0.604674 -2.228873,-0.927828 0.01289,1.477127 -0.03592,2.956579 -0.04225,4.419123 -0.01056,2.428626 0.0085,4.857041 0.01479,7.283131 0.01479,5.000551 0.20493,10.003211 0.454225,14.995511 0.437324,8.81733 0.950705,17.62218 1.728169,26.41858 0.196479,2.21284 0.462888,4.42145 0.650705,6.63428 0.112183,1.30404 -0.156339,2.39059 -1.349789,3.07536 -0.587535,0.33816 -1.041761,0.19656 -1.624859,-0.0761 C 8.6119859,147.24699 8.5718451,145.66841 8.4366338,144.29464 8.3333239,143.25881 8.2380423,142.2234 8.1450845,141.18567 7.9467042,138.97284 7.7753662,136.75979 7.6359296,134.54272 7.0847324,125.73364 6.9239577,116.93323 7.3042394,108.11358 7.4807988,103.98832 7.7356888,99.853774 8.0739842,95.735821 l 0.079551,-0.949991 c 0.2788733,-3.290935 0.4584507,-6.744188 1.0352113,-10.056047 -2.3260564,-1.031389 -4.6309859,-2.343875 -5.7,-4.525221 -1.3857042,-2.832094 0.1373239,-5.253957 2.3070422,-6.921722 -0.021127,-0.281096 0,-0.560078 0.059155,-0.813487 0.6232394,-2.699155 1.6669014,-5.366396 2.6746478,-7.940431 1.0161972,-2.587139 2.1380285,-5.133699 3.3718315,-7.62573 4.952112,-9.982074 11.716901,-19.103742 19.780985,-26.78865 4.005634,-3.816775 8.389437,-7.344422 13.069014,-10.303326 2.319719,-1.464447 4.698592,-2.8173 7.161972,-4.021785 l 0.3642,-0.177418 c 1.714872,-0.832517 3.638209,-1.71769 5.545167,-2.181251 0.19838,-0.147946 0.399084,-0.287437 0.601901,-0.420587 0.75,-0.498999 1.76831,-0.137589 2.211972,0.574661 0.215704,-0.166967 0.464788,-0.314701 0.75,-0.448063 l 0.281906,-0.128719 c 1.711073,-0.770748 3.765647,-1.491459 5.623023,-0.984885 1.153521,0.314912 2.061972,1.16454 2.46993,2.246653 0.935704,-0.494559 1.854718,-1.003914 2.752606,-1.627397 1.442957,-0.997573 2.750704,-2.236297 3.925352,-3.5361017 2.355634,-2.6141918 4.066901,-5.6766576 4.83169,-9.12399218 z M 163.00846,82.408946 c -0.16056,0.04671 -0.32957,0.06362 -0.50493,0.04227 0.31679,0.03725 -0.31781,0.224574 -0.49185,0.314399 l -0.0131,0.0071 c -0.31691,0.18155 -0.63571,0.356971 -0.95916,0.526263 -0.75423,0.397127 -1.52514,0.754309 -2.30915,1.090567 -1.54437,0.6573 -3.13944,1.162427 -4.77677,1.53229 -1.6014,0.361197 -3.28098,0.572548 -4.92253,0.606364 -1.09859,0.02113 -2.40211,-0.02938 -3.53873,-0.352955 0.13119,1.993033 0.27676,3.983953 0.43943,5.972759 l 2.24475,-0.514849 c 2.2449,-0.515285 4.48745,-1.043172 6.70244,-1.685307 1.66267,-0.481668 3.30211,-1.045973 4.92253,-1.654873 0.8493,-0.319139 1.69226,-0.657088 2.52465,-1.020611 0.41425,-0.180986 0.80268,-0.396237 1.18647,-0.61423 l 0.32832,-0.186787 c -0.0761,-0.889785 -0.21549,-1.762662 -0.4181,-2.641879 -0.10563,-0.464971 -0.28542,-0.942622 -0.4143,-1.420485 z M 9.2943803,73.022879 C 9.009169,73.948805 8.5718451,74.813227 7.574662,75.022464 7.2218451,75.096437 6.9262817,75.05628 6.681,74.935811 l -0.058816,0.118672 c -0.8198896,1.683491 -1.0606714,3.460411 0.8257176,4.757179 0.8516197,0.58544 1.7788732,1.092681 2.7380284,1.546873 1.715228,0.816538 3.541868,1.472954 5.26406,2.140609 l 0.342982,0.133731 c 3.080281,1.208924 6.209155,2.310059 9.386619,3.231335 3.224155,0.932055 6.50493,1.680235 9.826268,2.155773 1.400493,0.19888 2.811761,0.338372 4.225352,0.429252 0.02303,-1.902152 0.01246,-3.806419 0.0061,-5.708571 -0.50279,-0.06362 -1.001381,-0.131037 -1.48286,-0.188313 C 36.288042,83.381368 34.82607,83.172132 33.372549,82.912171 30.336634,82.369 27.332408,81.618707 24.402127,80.659176 18.972549,78.877493 13.921141,76.330511 9.2943803,73.022879 Z M 68.823254,14.75783 c -1.233803,-1.305933 -3.593663,-0.834622 -5.082888,-0.200571 -0.450211,0.192329 -0.904436,0.386771 -1.335422,0.62137 l -0.08348,0.04671 c -0.501924,0.289187 -0.499395,0.461057 -0.254335,1.037303 0.318803,0.758959 0.762464,1.492133 1.185,2.19593 1.808662,3.020407 4.189436,5.649604 6.908451,7.870685 9.629577,7.862231 23.46338,10.635358 35.50563,8.001933 5.77945,-1.262528 11.35431,-3.810921 15.60888,-7.990715 l 0.38745,-0.385665 c 1.71546,-1.717227 4.07026,-4.20285 3.90508,-6.747847 -0.0782,-1.223929 -1.07746,-1.293675 -2.09789,-1.530176 -0.4181,-0.09722 -0.8176,-0.23481 -1.16408,-0.429041 0.27887,1.202583 -1.20613,2.990395 -1.97324,3.7409 -1.60775,1.574348 -3.54296,2.804407 -5.58993,3.723992 -3.89599,1.752094 -8.1338,2.580587 -12.35303,3.104525 -4.787321,0.596219 -9.678166,0.543381 -14.429575,-0.337949 C 83.825368,26.712012 79.750016,25.260036 76.19227,22.998587 74.561284,21.96276 72.953537,20.781311 71.592974,19.405632 L 71.303815,19.11329 c -0.982308,-0.995617 -2.125248,-2.199091 -2.712956,-3.50562 -0.223943,0.0021 -0.445775,-0.0044 -0.667605,-0.01923 -0.156339,-0.0082 -0.240634,-0.230372 -0.08451,-0.312799 0.175353,-0.09299 0.350705,-0.185777 0.526057,-0.276657 -0.02937,-0.09743 -0.05493,-0.192329 -0.07606,-0.28955 -0.0169,-0.08243 0.06972,-0.158513 0.145774,-0.112016 0.105634,0.06319 0.207042,0.131037 0.306338,0.202685 0.02747,-0.01247 0.05493,-0.02726 0.0824,-0.04227 z"
           id="ðŸ–-Ink-9"
           fill="#000000" /></g><g
         id="head/Bun-2"
         transform="translate(78.591549,38.043053)"
         fill-rule="evenodd"><path
           d="M 83.979232,51.518029 C 83.477261,45.020275 84.255148,38.209724 81.750782,32.033645 77.384303,21.786326 65.140078,18.369638 55.647613,14.468322 51.844761,13.344229 39.048603,13.18711 34.595915,11.699338 24.518379,8.3321393 22.11061,4.3201713 14.103106,10.731438 c -1.35169,1.095217 -2.197395,2.285542 -2.814296,3.911883 l 0.02535,0.007 c -0.176197,0.678012 0.01268,1.354544 0.409648,1.871296 -3.471972,3.550262 -4.9248593,8.872908 -3.1434508,13.598911 5.8134508,12.298263 5.5400708,18.947977 3.6669718,32.169206 -2.4460563,12.342857 3.143451,16.851593 12.400352,23.56746 -0.376901,0.731061 -0.45507,1.702638 0.03634,2.347679 10.704296,15.047937 30.887304,22.232657 48.180191,14.594877 7.019366,-3.125451 10.153119,-10.603738 11.941499,-17.351519 2.08331,-7.555562 2.723451,-15.517127 1.027395,-23.213659 -0.684085,-3.559562 -1.575212,-7.093339 -1.853874,-10.716517 z"
           id="path79"
           fill="#ffffff" /><path
           d="m 22.234648,-20.471981 c 1.299333,-0.195184 2.280551,0.61127 2.747319,1.747953 l 0.02451,0.06121 c 0.15,0.386771 0.316901,0.762975 0.496479,1.132838 3.251408,-1.595695 7.890845,-1.185675 9.948591,2.045871 1.46831,2.307945 0.572535,5.047045 0.01901,7.4944811 l -0.36338,1.6126028 c 0.702412,0.4471644 1.232105,1.2479389 1.207239,2.0771429 l -0.003,0.063835 -0.147887,2.2487672 c 0.469014,-0.4755382 0.897887,-0.9933464 1.280282,-1.5449707 0.264084,-0.4839922 0.549296,-0.9595303 0.855634,-1.420274 1.802112,-2.7116242 5.847887,-0.3550684 4.360563,2.5488846 -0.285211,0.5600783 -0.606338,1.0905675 -0.950704,1.60203521 -0.388733,0.75452054 -0.707747,1.53017612 -0.952817,2.32696669 0.703521,0.306458 1.244366,0.9870059 1.301408,2.0141683 0.133099,2.3988259 -1.126056,4.4003131 -3.128873,5.6578474 -0.589437,0.369863 -1.197887,0.4417221 -1.749296,0.3043444 -0.09718,0.1310372 -0.194366,0.2620744 -0.287324,0.3952251 0.798592,0.648845 1.519014,1.388571 2.138028,2.20861 1.863381,-0.278982 3.737324,-0.410019 5.611268,-0.414246 2.290141,-1.122271 5.032394,-1.099022 7.493662,-0.678435 1.584507,0.270528 3.105634,0.796791 4.664789,1.175108 1.643662,0.397338 3.312676,0.412133 4.975352,0.682661 2.095775,0.340274 3.933803,1.308258 5.089437,2.853229 1.269718,0.03804 2.604929,0.557965 3.711971,1.263875 2.577465,1.644305 5.140141,3.311859 7.711268,4.966732 0.986752,0.635327 1.355706,1.649584 1.174298,2.780863 l -0.01233,0.07237 -0.08662,0.469197 0.203415,0.288789 c 0.786835,1.111585 1.642979,2.275905 2.152219,3.502836 0.942253,1.358982 1.793662,2.783483 2.547887,4.252367 1.016197,1.974012 1.85493,4.06638 2.42324,6.213699 0.141549,0.54317 0.283098,1.090568 0.376056,1.644305 0.133099,0.781996 -0.07183,1.388572 -0.183803,2.138865 -0.139436,0.951077 -0.190141,1.914834 -0.338028,2.868024 -0.0993,0.631937 -0.635916,0.942622 -1.197887,0.95953 0.211267,1.608376 0.36338,3.227319 0.509155,4.833581 0.204929,2.295265 0.344366,4.596869 0.464788,6.898474 0.621127,0.902466 1.890846,1.61683 2.807747,1.86411 1.269718,0.340274 2.600704,-0.02959 3.800704,-0.462858 0.754225,-0.272641 1.37324,0.676321 1.005634,1.310372 -1.155634,1.990921 -3.627465,1.982466 -5.499296,1.101135 -0.792253,-0.371975 -1.487324,-0.91092 -2.002817,-1.612603 0.03169,0.667867 0.06549,1.335734 0.0993,2.005715 l 0.03148,0.606846 c 0.380609,7.086988 1.20232,14.417753 -0.128666,21.434876 -2.30493,12.154755 -12.359676,21.409676 -24.642254,22.128376 -6.445358,0.37714 -11.812697,-1.52734 -14.481701,-2.58973 -2.669003,-1.0624 -1.631652,-3.22857 0.22118,-2.60935 3.191814,1.0667 9.055367,2.65589 14.302775,1.96965 12.367605,-1.6174 22.854929,-7.801316 21.777465,-34.435306 -0.152795,-3.776957 -0.62324,-7.555773 -0.724648,-11.332603 -0.09718,-3.69229 -0.06127,-7.386693 -0.223944,-11.076869 l -0.05425,-1.259056 c -0.06352,-1.471172 -0.131435,-2.949163 -0.241529,-4.42204 -0.133098,-0.570645 -0.242957,-1.149745 -0.405633,-1.709823 -0.44155,-1.523836 -1.01831,-3.005402 -1.734507,-4.419335 -0.158451,0.12047 -0.335916,0.207123 -0.528169,0.240939 -1.45986,0.262074 -2.828874,0.188102 -4.195775,-0.420587 -0.638028,-0.281096 -1.2,-0.655186 -1.723944,-1.118043 -0.249296,-0.217691 -0.416197,-0.429041 -0.547183,-0.648845 -0.661267,0.01057 -1.322535,-0.188102 -1.73662,-0.66364 -0.472285,-0.542012 -0.550834,-1.101837 -0.36585,-1.620096 l 0.01937,-0.05169 -0.04648,-0.01691 c -0.557747,1.443522 -1.669014,2.713738 -2.888028,3.57182 -1.926761,1.361096 -4.337324,1.754207 -6.648592,1.790137 -2.552113,0.03804 -5.243662,-0.355069 -7.761972,-0.756634 -0.665493,-0.105675 -1.32676,-0.226145 -1.975352,-0.388885 -0.02535,0.02536 -0.0507,0.05495 -0.07817,0.08031 -2.161268,2.06912 -5.201408,2.601722 -7.943662,1.420274 -1.584507,-0.682661 -2.91338,-1.781683 -4.088028,-3.04133 -0.0169,0.659412 -0.0507,1.318825 -0.107746,1.971898 l -0.02362,0.259333 c -0.11696,1.216324 -0.342011,2.506538 -1.260885,3.384346 -1.485211,1.422387 -3.64014,0.851742 -5.353521,-0.07397 0.0021,0.04438 0.0021,0.09088 0.0021,0.137378 0.462676,1.572446 0.927465,3.147006 1.392254,4.721565 l 0.100111,0.335416 c 0.337981,1.118028 0.708659,2.237486 0.810452,3.407598 0.194366,2.236086 -1.292958,4.444697 -3.777465,3.694403 -1.303219,-0.392145 -2.347261,-1.488334 -3.349036,-2.366329 L 27.52055,48.671268 c 1.633099,5.340822 2.765493,10.871859 2.871127,16.445167 0.0063,0.302231 -0.253521,0.530489 -0.540845,0.541056 -0.671831,0.02748 -1.394366,-0.105675 -2.070423,-0.37409 -0.03803,-0.0021 -0.07606,-0.0042 -0.116197,-0.01057 -1.153521,-0.166967 -2.224648,-0.583327 -3.169014,-1.198356 0.217606,0.691115 0.314789,1.432955 0.257747,2.20861 -0.01479,0.188102 -0.308451,0.253621 -0.350705,0.0465 -0.54507,-2.682035 -3.682394,-4.708884 -6.386619,-4.195303 -2.902817,0.551624 -5.040845,3.049785 -5.564789,5.892446 -0.561972,3.054012 0.51338,6.585675 2.505634,8.942231 0.916901,1.086341 2.123239,1.993033 3.555634,2.221292 0.654929,0.103561 1.335211,0.06763 1.971126,-0.118356 0.270423,-0.08031 0.523944,-0.192329 0.781691,-0.298004 0.376056,-0.152173 0.815492,-0.175421 1.170422,-0.336047 0.80493,-0.361409 1.614085,0.38043 1.206338,1.20681 -0.354929,0.720704 -0.673944,1.20681 -1.26338,1.578786 0.477465,0.583327 0.910563,1.394913 1.071127,1.612603 0.819718,1.107476 1.652112,2.15366 2.585915,3.166028 0.950704,1.027162 1.988028,1.965557 3.084507,2.834207 l 0.460881,0.364315 c 1.056153,0.837971 1.975827,1.614452 2.720809,2.816507 0.587324,0.948963 -0.173239,2.236086 -1.273943,2.221292 -3.443662,-0.04861 -5.947184,-3.075147 -7.730282,-5.719139 -0.253521,-0.378317 -0.492254,-0.777769 -0.714085,-1.187789 -0.08028,0.128924 -0.169014,0.249393 -0.268309,0.359295 l 0.196479,0.528376 c 0.583098,1.555538 -1.928874,2.572133 -2.657747,1.120157 -0.530282,-1.052525 -1.145071,-2.054325 -1.829578,-3.001174 -0.403521,-0.05706 -0.798591,-0.302231 -1.018309,-0.619257 -0.555634,-0.805244 -1.178874,-1.618943 -1.70493,-2.477025 -0.291549,-0.276869 -0.591549,-0.54317 -0.897887,-0.803131 -0.08873,0.0782 -0.179578,0.156399 -0.266197,0.238826 -0.384507,0.877103 -0.85986,1.678121 -1.449296,2.432641 L 12.561089,85.27114 C 11.431884,86.694834 9.9610371,88.151963 8.1409859,88.50023 7.5853521,88.605905 7.0508451,87.91479 7.5430986,87.473068 8.8170423,86.327549 10.32338,85.547667 11.498028,84.268997 12.07675,83.639022 12.60811,82.945265 13.065043,82.218185 l 0.104112,-0.168366 c 0.07606,-0.124697 0.154225,-0.249393 0.234507,-0.376203 -0.530282,-0.361409 -1.060563,-0.724932 -1.590845,-1.088454 -1.459791,1.247648 -3.3608038,1.81836 -4.9754341,2.851856 L 6.6769014,83.541952 C 5.2170423,84.518391 3.6790141,82.358391 4.8494366,81.172715 6.1396479,79.870586 7.2166901,78.317796 8.3596479,76.870469 7.8221831,75.880081 7.5678169,74.708989 7.4725352,73.525428 7.4349296,73.190438 7.4055634,72.855236 7.3761972,72.520034 6.5564789,72.532715 5.7325352,72.25162 5.0353521,71.767627 L 4.7712676,71.579526 C 3.9240845,71.850054 3.0346479,71.981091 2.1832394,71.957843 0.18042253,71.898665 -0.63929577,69.609741 0.61352113,68.161991 1.8916901,66.682539 4.1290141,66.359173 5.9015493,67.077764 c 0.057042,-0.02959 0.1161972,-0.06129 0.1732394,-0.09299 -0.084507,-0.388884 -0.065704,-0.741628 0.030423,-1.051468 L 6.0773239,65.744355 C 5.6875352,65.146023 5.4312676,64.462939 5.3340845,63.741177 c -0.076901,-0.571702 -0.061268,-1.138332 0.070986,-1.702849 0.043944,-0.18789 0.1354226,-0.382544 0.2053521,-0.578466 -0.1440845,-0.363945 -0.2288028,-0.740149 -0.255,-1.118465 -0.040352,-0.04798 -0.080493,-0.09722 -0.1185211,-0.150482 -0.879507,-1.235342 -0.701831,-2.723882 0.1352113,-3.723569 0.0038,-0.06362 0.00972,-0.127233 0.01838,-0.190427 -0.049014,-0.110325 -0.094014,-0.221706 -0.135,-0.334356 C 4.4376761,55.11724 3.8372535,54.124105 3.9492253,52.893412 4.0149296,52.169326 4.3123944,51.517522 4.7626056,51.030359 4.6827465,50.79407 4.6751408,50.520371 4.7719014,50.291901 4.0533803,48.380027 4.1442253,46.077365 4.6614084,43.939134 4.5473239,43.613655 4.488169,43.2607 4.5008451,42.88661 4.56,41.299369 5.9332394,39.841052 7.56,39.860074 c 0.1958451,0.0017 0.3792253,0.02726 0.5554225,0.06467 l 0.00232,-0.03783 C 8.1800665,39.41053 8.3110523,38.970288 8.5022495,38.575274 8.4082355,38.541244 8.3211932,38.492424 8.2449256,38.42754 7.2025312,38.983814 6.099503,39.409051 4.9430242,39.698812 4.0926721,39.911853 3.2216157,38.944926 3.7502073,38.146444 3.995489,37.775947 4.2661228,37.443282 4.5576721,37.13936 4.143165,37.14166 3.7223199,37.16979 3.2966157,37.22453 2.531827,37.32386 1.6783059,36.80183 1.181827,36.09592 c -0.61690142,0.600235 -1.23591551,1.198356 -1.85492959,1.796477 -1.56760561,1.519609 -3.93591551,0.401566 -4.18309861,-1.602035 -0.4669014,-0.124697 -0.9021127,-0.336047 -1.284507,-0.638278 -2.471831,1.07366 -5.1316898,1.663327 -7.8507048,1.775343 -1.952112,0.08031 -3.092957,-2.193816 -2.180281,-3.800079 0.612676,-1.077886 1.373239,-2.04587 2.25,-2.887045 -1.360564,0.41636 -2.765493,0.716478 -4.2,0.908807 -0.775352,0.103561 -1.871831,-0.538944 -2.182394,-1.251194 -1.187324,-2.7391 -1.085916,-5.594442 0.280985,-8.25957 0.05282,-0.105675 0.111972,-0.207123 0.169015,-0.308571 0.141549,-0.352955 0.295774,-0.701683 0.462676,-1.04407 -1.681691,-1.754208 -1.827465,-4.362271 -0.921127,-6.545519 -0.36338,-0.589667 -0.502817,-1.299804 -0.255634,-1.942309 0.703521,-1.849315 1.717606,-3.5570256 2.997887,-5.0237967 -0.122535,-0.2367123 -0.230281,-0.4882192 -0.321126,-0.7587475 -0.720423,-2.1874756 0.114084,-4.8272407 1.797887,-6.35107635 1.058451,-0.95953034 2.275352,-1.53440315 3.574648,-1.90215265 0.547183,-0.9679843 1.250704,-1.8408611 2.070422,-2.5763601 0.03169,-0.069746 0.06338,-0.1394912 0.0993,-0.2092368 1.2760564,-2.4051663 3.6000001,-3.6944031 6.0908451,-3.992407 0.097183,-0.9405088 0.730986,-1.8387479 1.6521127,-2.1304109 0.2535211,-0.813699 0.6316902,-1.591468 1.1514085,-2.297378 0.8176056,-1.111702 2.17605631,-1.635851 3.456338,-0.906692 0.7014085,0.399452 1.3732394,0.858082 2.0028169,1.365322 0.2827736,-0.132663 0.6033503,-0.218503 0.9650535,-0.245886 l 0.091284,-0.0056 2.0830986,-0.105675 c 0.8725352,-0.386771 1.7429578,-0.792563 2.615493,-1.187788 0.5239437,-0.433268 1.1091557,-0.794677 1.7471837,-1.063092 0.722535,-0.302231 1.461972,-0.473425 2.203521,-0.53049 0.602113,-0.196555 1.208451,-0.369863 1.825352,-0.505127 1.449295,-0.317025 2.966197,-0.494559 4.470422,-0.479765 0.03078,-0.389488 0.04605,-0.783635 0.04313,-1.18244 l -0.003,-0.199791 c -0.0338,-1.278669 0.986619,-2.299491 2.188733,-2.481252 z M 20.774789,81.832128 c -0.207043,0.04438 -0.416198,0.08031 -0.625352,0.105675 0.06338,0.1564 0.12676,0.312799 0.188028,0.469198 0.169014,0.09511 0.340141,0.185988 0.511267,0.270529 -0.0507,-0.287437 -0.08028,-0.576987 -0.07394,-0.845402 z M 9.920493,78.605443 9.7800391,78.864167 c -0.022762,0.04233 -0.04518,0.08416 -0.067222,0.1253 0.2978869,-0.02325 0.5978869,-0.01691 0.8936619,0.01691 l -8.45e-4,-0.03149 c -0.03803,-0.01289 -0.07606,-0.02473 -0.112395,-0.04248 -0.204084,-0.09807 -0.393802,-0.207968 -0.5727458,-0.326959 z m 5.866268,-11.804526 c 1.869131,0.108904 3.452701,0.395605 5.152592,1.213587 l 0.145999,0.07142 c 1.502113,0.746067 3.98662,2.124071 3.777465,4.100196 -0.05916,0.562192 -0.466902,1.153973 -1.109155,1.109589 -1.759859,-0.12047 -2.765493,-1.895812 -3.957042,-3.003288 -1.202113,-1.115929 -2.678874,-2.263561 -4.134507,-3.030763 -0.20576,-0.108015 -0.124707,-0.449893 0.09919,-0.460909 z M 7.3107042,40.764653 c -0.4478873,0.01479 -0.2978873,0.450176 -0.067606,0.08665 0.019014,-0.02959 0.042254,-0.05918 0.067606,-0.08665 z M 31.487324,11.699338 c -4.241831,0.111593 -8.510915,2.617151 -11.688592,5.149761 -2.764436,2.203327 -5.151549,4.82407 -7.265281,7.648767 -0.543803,1.406748 -1.010704,2.842873 -1.405141,4.289566 -0.259859,0.955303 -0.422535,1.921174 -0.640141,2.884931 l -0.06761,0.295468 c -0.170915,0.319562 -0.297887,0.663428 -0.390422,1.018708 0.385141,0.386349 0.884789,0.663006 1.434929,0.794255 0.177254,0.04227 0.324508,0.133784 0.440916,0.255099 0.442817,-0.739303 0.829859,-1.519608 1.05507,-2.346833 l 0.0082,-0.03826 c 0.851197,-1.3947 1.775704,-2.746074 2.76676,-4.051162 2.733803,-3.603523 5.744366,-6.887906 9.363381,-9.620665 2.744366,-2.071233 5.811971,-3.694403 9.073943,-4.749041 C 33.375,12.58553 32.468239,12.075753 31.487324,11.699338 Z"
           id="path81"
           fill="#000000" /></g><g
         id="face/Smiling"
         transform="translate(112.1831,77.354207)"
         fill="#000000"
         fill-rule="evenodd"><path
           d="m 30.968993,50.919898 c -1.420199,-0.579597 -2.687376,-1.546402 -3.613804,-2.781433 -0.322085,-0.429348 -0.405596,-0.882732 -0.33803,-1.29741 0.07597,-0.466276 0.351722,-0.888873 0.72778,-1.172337 0.377224,-0.284343 0.849082,-0.424574 1.305271,-0.353088 0.396402,0.06212 0.791,0.279241 1.103296,0.729548 l 0.06525,0.09005 c 0.550778,0.745422 1.268492,1.357032 2.086277,1.75125 0.788212,0.379963 1.669747,0.557306 2.581992,0.454177 1.737429,-0.19634 2.934953,-1.136329 4.20779,-2.412817 0.157772,-0.16116 0.315645,-0.327372 0.474284,-0.496259 0.100183,-0.153096 0.239212,-0.251491 0.393572,-0.303117 0.171389,-0.05732 0.365271,-0.05408 0.542852,0.0079 0.171277,0.0598 0.32439,0.173105 0.427057,0.323913 0.09758,0.14333 0.152899,0.320396 0.134948,0.524065 -0.116505,1.322871 -0.807846,2.503477 -1.789869,3.430502 -1.090661,1.02958 -2.536412,1.741851 -3.897523,1.991666 -1.499545,0.275182 -3.027542,0.07803 -4.411139,-0.486629 z M 36.087529,30.51204 c 1.595362,0.970108 4.026203,3.232209 2.309961,5.637224 -2.020181,2.120581 -4.928786,-0.31081 -6.362095,-1.410433 -1.329032,-0.852215 -2.822274,1.339617 -1.589198,2.334721 10.357127,7.671008 14.560269,-6.307842 6.448244,-7.70212 -0.893164,-0.153644 -1.224887,0.840495 -0.806912,1.140608 z M 17.527458,21.588672 c 0.176266,-2.188802 3.508521,-2.68584 3.84,-0.519922 0.296831,1.940196 -0.05261,3.722513 -0.926197,5.469323 -0.834719,1.668822 -2.932715,0.890238 -3.091377,-0.629371 -0.21268,-2.036972 0.06793,-2.95847 0.177574,-4.32003 z m 25.36557,-0.96902 c 0.464578,-0.608689 1.135352,-1.024204 1.939014,-0.789394 2.510916,0.73402 1.770845,4.300133 0.889014,6.035953 -0.479155,0.942623 -2.027957,1.18166 -2.727887,0.351687 -1.140845,-1.353487 -1.687183,-4.056446 -0.236831,-5.389644 0.0393,-0.0689 0.08303,-0.138434 0.13669,-0.208602 z m -22.487134,-8.608509 0.396628,-0.06945 c 1.227,-0.21229 2.752633,-0.416276 3.620626,0.57056 0.460352,0.523304 0.618803,1.495938 0,1.996838 -1.088451,0.881331 -2.291831,0.539789 -3.596197,0.614395 -1.07493,0.06171 -2.108028,0.239672 -3.143451,0.535773 -2.271549,0.64948 -4.122465,1.835155 -6.062535,3.137073 -0.254578,0.170771 -0.514437,-0.15492 -0.392958,-0.393112 1.11993,-2.19445 3.290282,-3.997057 5.464225,-5.095867 1.160282,-0.586497 2.43,-1.073025 3.713662,-1.29621 z m 20.198235,-0.983014 0.303576,0.06215 c 3.303642,0.690821 7.595846,2.070794 9.160279,5.317019 0.05961,0.459028 -0.0034,0.557407 -0.05459,0.621682 l -0.01705,0.02139 c -0.0422,0.05489 -0.07588,0.130549 -0.274764,0.193024 -0.05519,-0.01316 -0.110931,-0.02709 -0.167261,-0.04186 -0.717109,-0.188001 -1.284481,-0.447 -1.833757,-0.715742 L 47.125001,16.192275 C 46.434039,15.85335 45.736976,15.52676 44.998249,15.285659 43.421742,14.771244 41.80017,14.408871 40.153474,14.215372 c -0.356909,-0.0419 -0.700589,-0.162408 -0.971729,-0.368932 -0.257365,-0.196032 -0.453976,-0.467444 -0.543619,-0.828209 -0.116178,-0.466887 -0.08279,-0.820359 0.167616,-1.24156 0.188291,-0.316313 0.457705,-0.535559 0.767061,-0.661458 0.315374,-0.128348 0.674425,-0.158606 1.031326,-0.08708 z"
           id="path84" /></g><g
         id="facial-hair/*-None-3"
         transform="translate(104.57745,109.47938)" /><g
         id="accessories/Sunglasses-2"
         transform="translate(88.521127,88.978474)"
         fill="#000000"
         fill-rule="evenodd"><path
           d="M 84.281958,2.7964391 C 84.108085,2.7674842 83.934,2.74022 83.759916,2.7146466 83.62407,2.6375037 83.464563,2.5781143 83.27907,2.5423961 82.855479,2.4348188 82.434845,2.3623256 82.014845,2.3232258 75.986958,0.9661456 62.041817,2.8930262 61.466324,8.0389832 59.546746,8.6800086 57.885761,8.1059812 55.660901,8.1630458 53.96738,1.0817542 24.689282,2.0812298 23.281183,6.3505057 c -0.0053,-0.00148 -0.01056,-0.00275 -0.01606,-0.00444 C 21.912169,5.927171 19.917591,6.0281965 18.369,5.9618325 15.062451,5.8925096 11.752099,6.1873432 8.5169578,6.8850106 2.4588592,7.8481339 -5.8090986,8.9756877 -1.5957887,16.543719 c 8.45e-4,0.0013 0.00148,0.0027 0.00254,0.004 l 6.338e-4,-6.34e-4 c 0.72612674,0.744587 1.95845069,0.144986 2.00429576,-0.862944 C -1.0048732,12.098811 2.1945634,11.66829 4.6562535,10.637958 10.781535,8.4365331 17.017732,8.1313433 23.352803,8.8123139 c 0.476619,0.5613464 1.199788,1.0508337 1.964155,1.3069901 4.235704,0.703374 2.00345,3.846576 4.680845,4.303726 -0.491831,10.956822 12.805563,16.937613 20.510282,9.735006 3.076267,-3.008783 3.809577,-7.465949 4.522816,-11.483507 0.377113,-0.08475 0.616902,-0.291029 0.756972,-0.564094 0.906972,-0.905847 1.476761,-1.742372 3.270211,-1.991131 1.793451,-0.2485478 3.174085,0.25045 3.360846,0.403257 0.04711,0.0949 0.0976,0.190003 0.156338,0.285111 0.08197,0.141816 0.193521,0.254889 0.320281,0.343867 -1.771056,10.910747 6.695916,17.810912 15.243592,12.152008 3.714084,-3.4951 4.498944,-8.846067 4.654014,-13.6221607 0.503451,-0.3039217 0.822253,-0.892955 0.647958,-1.6335264 C 83.200901,7.027038 83.764141,6.143171 84.661183,5.6993354 85.826746,5.1229832 85.620549,3.0181456 84.281958,2.7964391 M 47.553589,7.9726322 c -1.060972,-0.2334445 -1.514073,1.4030015 -0.449719,1.6370827 0.753694,0.1657675 1.392477,0.5459921 1.82405,1.1901471 l 0.04544,0.07003 c 0.579116,0.921893 2.043502,0.07088 1.460369,-0.856954 C 49.777655,8.9688036 48.758124,8.2374856 47.553589,7.9726322 Z M 78.628141,6.9579975 c -0.374025,-0.26358 -0.940032,-0.067911 -1.157174,0.304539 -0.238988,0.4101367 -0.08235,0.8667812 0.26795,1.1350863 l 0.03567,0.026194 c 0.321311,0.2265515 0.634243,0.6326492 0.673541,1.0487451 l 0.0035,0.052052 c 0.04207,1.0889121 1.733753,1.0944301 1.691466,0 -0.04123,-1.0706613 -0.66094,-1.9651782 -1.514919,-2.5666162 z"
           id="path88" /></g></g><g
       id="a-person/bust-8"
       style="fill:none;fill-rule:evenodd;stroke:none;stroke-width:1"
       transform="matrix(0.276017,-0.02414836,0.02414836,0.276017,-15.471087,-2.6149748)"><g
         id="body/Coffee"
         transform="translate(31.056338,135.05284)"
         fill-rule="evenodd"><path
           d="m 83.283127,0.67059335 c 5.215141,-3.97275145 18.308033,-5.75929545 23.874083,-1.93406655 5.49761,3.8412916 6.09694,10.053186 8.65877,15.7676752 2.41711,-1.140235 6.40872,0.492771 7.10949,2.736466 0.86916,1.058231 0.90819,4.031371 1.50756,5.45397 26.07929,4.152822 30.03862,24.492887 33.17763,47.584597 4.15268,23.432196 13.57965,46.813245 9.48718,70.925355 0.53325,0.77185 0.95367,1.52214 1.3424,2.4132 0.93148,1.58555 -0.26831,3.82988 -2.14711,3.74301 -2.43191,-0.21367 -4.83972,-0.50534 -7.28303,-0.59643 -6.77319,-0.23532 -13.55256,-0.20726 -20.32831,-0.12114 l -0.92395,0.0121 c -34.14781,0.42524 -68.293727,1.26324 -102.443023,1.48548 -1.238873,0.002 -1.845423,-1.1097 -1.68,-2.20618 0.333169,-2.20756 0.642253,-4.41616 0.964859,-6.62478 -8.077183,2.13422 -16.663944,2.67126 -24.7183098,0.22446 -0.5634507,-0.57424 1.3128168,-0.26292 1.6104928,-0.35021 C 4.0793239,134.11696 6.2929859,123.44229 6.9496056,115.75379 11.032563,89.408762 12.47193,60.259752 28.24707,37.779055 c 6.824578,-9.174293 16.83,-16.43798 28.326972,-18.072352 l 0.318961,-0.04369 c 3.361703,-0.44841 7.108292,-0.592856 10.047518,-2.422346 3.305749,-2.640042 4.714455,-7.5181398 8.192243,-7.5638052 1.148382,-0.015079 2.7106,1.4382762 4.391701,2.4250342 0.125497,-2.1707029 1.294857,-4.0025805 1.553038,-5.68564 l 0.0209,-0.1439324 C 81.367809,4.3101098 80.998848,2.5447415 83.283127,0.67059335 Z M 139.32995,70.97526 c -7.32903,-5.093438 -26.26135,-2.534186 -26.69476,-2.248974 -0.95429,0.627922 -1.36523,0.683454 -1.88136,1.498843 -0.50958,0.06763 -1.01873,0.137801 -1.52746,0.210083 -1.02064,0.33351 -0.2643,1.589354 0.91457,1.141291 -0.70906,3.059147 1.37765,5.23472 2.20838,8.259017 0.26974,0.981968 0.01,2.748053 0,3.751386 0.0806,1.279283 1.49441,2.790378 1.25877,4.073827 -0.83774,4.562882 -5.3838,9.013896 -3.46715,13.438907 1.26972,2.49922 5.0886,3.77362 7.62761,4.62325 5.26035,2.01966 14.42603,-0.0761 17.48244,-4.62325 1.63024,-2.425407 3.51895,-8.543507 4.49099,-10.441222 l 0.21545,-3.010385 c 0.53133,-7.483241 1.00395,-15.538982 -0.62748,-16.672773 z"
           id="ðŸŽ¨-Background-0"
           fill="#ffffff" /><path
           d="m 73.855838,9.2355851 c 0.505986,-0.4482739 1.254718,0.1149746 0.933169,0.7204932 -0.722535,1.3608847 -1.463662,2.6503327 -2.43338,3.8533387 -0.587958,0.72937 -1.217747,1.419217 -1.855986,2.101456 1.637958,1.417526 3.042676,3.17744 4.369225,4.826818 1.696268,2.109487 3.3,4.308375 5.204155,6.238638 1.877908,1.903672 3.954345,3.234405 6.465009,4.121784 l 0.507076,0.176193 c 2.522157,0.885785 5.217817,2.082008 6.639464,4.470946 0.280352,0.4711 -0.284155,1.053159 -0.758661,0.759171 -2.470353,-1.530176 -5.372958,-1.837903 -8.061972,-2.849002 -2.597536,-0.97665 -4.861902,-2.479773 -6.862606,-4.3982 -1.997324,-1.915256 -3.674366,-4.094278 -5.423662,-6.227225 -1.729859,-2.109065 -3.592394,-3.910403 -5.638521,-5.694834 -3.157506,2.124998 -6.761721,3.049644 -10.426594,3.957806 l -0.400026,0.09906 c -3.669296,0.908807 -7.318943,1.96429 -10.761338,3.546881 -3.03507,1.395123 -6.020282,3.061198 -8.492535,5.331522 -2.624366,2.409394 -4.666902,5.486654 -6.536409,8.496071 -4.181831,6.732775 -7.121831,14.1089 -9.71007,21.574638 -2.691972,7.765432 -4.943662,15.686419 -6.761408,23.701456 -0.924507,4.076947 -1.675352,8.182849 -2.292465,12.317495 -0.297042,1.991342 -0.560916,3.986919 -0.792676,5.986919 -0.247395,2.1357 -0.304226,4.3329 -0.9591552,6.38638 -0.2807746,0.88006 -0.9437324,1.24527 -1.6073239,1.2142 l -0.1347837,1.68632 c -0.178729,2.24833 -0.3453431,4.49737 -0.4016248,6.75966 -0.093362,3.76162 -0.05103,7.5124 0.2194413,11.26604 l 0.038305,0.51188 c 0.2125352,2.73952 0.6874648,5.81763 2.7466903,7.82355 2.132535,2.07758 5.412042,2.73086 8.286338,2.76827 6.694437,0.0873 13.138521,-3.07705 19.062465,-5.85313 6.100986,-2.85894 12.035282,-6.03236 17.827394,-9.47399 2.949719,-1.75273 5.867536,-3.56379 8.748169,-5.42769 1.413592,-0.91493 2.817254,-1.8453 4.210352,-2.79067 0.797958,-0.54148 1.554085,-1.13516 2.366409,-1.61556 -0.398028,-0.37071 -0.575704,-0.95361 -0.242324,-1.46254 -2.34824,-2.03911 -3.325564,-5.67793 -3.439859,-8.62225 -0.09232,-2.37663 0.257324,-4.7465 0.533239,-7.100739 0.139226,-1.187155 0.311197,-2.372196 0.489719,-3.554067 0.07056,-0.466873 0.124436,-0.966293 0.20683,-1.459162 -6.340774,3.4858 -12.859225,6.590113 -19.550281,9.348028 -3.429719,1.41372 -6.90338,2.68478 -10.425,3.84953 l -0.713778,0.23494 c -3.336742,1.09266 -6.753321,2.12482 -10.202842,2.74954 -0.184437,0.0334 -0.334225,-0.23904 -0.137324,-0.3259 3.36169,-1.48389 6.839789,-2.73551 10.251972,-4.1021 l 0.560704,-0.22847 v 0 c -0.06444,-0.004 -0.131197,-0.0125 -0.200915,-0.0292 -2.001127,-0.48314 -3.98662,-1.22773 -5.949296,-1.85459 -1.821549,-0.58185 -3.868099,-0.94728 -5.570704,-1.82565 -0.130986,-0.0676 -0.05768,-0.24982 0.06993,-0.25848 1.913662,-0.13273 3.991057,0.42524 5.867324,0.75346 l 0.704852,0.12352 c 1.18077,0.20828 2.387754,0.43219 3.562754,0.72421 0.04246,-0.39375 0.262394,-0.78918 0.575282,-1.02103 3.443028,-2.550793 3.09338,-7.702668 3.461619,-11.50169 l 0.273061,-2.820475 c 0.480301,-4.936135 0.988418,-9.871609 1.76039,-14.770844 0.0412,-0.261651 0.445775,-0.186622 0.447465,0.06045 0.03982,6.073069 -0.418457,12.118195 -0.648157,18.181788 l -0.03557,0.994712 c -0.126988,3.74149 -0.226513,7.62659 -2.582049,10.505539 0.329366,-0.19254 0.774718,-0.19254 1.041549,0.1249 0.327888,0.39037 0.517183,0.82871 0.511268,1.25881 2.128521,-0.89275 4.247746,-1.80874 6.35662,-2.74333 6.780211,-3.004979 13.418239,-6.367774 19.880704,-10.00638 0.695493,-0.391632 1.356549,-0.08391 1.700493,0.432422 l 0.04964,-0.0071 c 0.0083,-0.0011 0.0167,-0.002 0.02536,-0.0022 l 0.04923,-0.0021 c 0.0019,0 0.0038,2.11e-4 0.0055,2.11e-4 0.909719,-0.500055 2.149014,-0.14393 2.929648,0.58544 0.02303,0.02198 0.04268,0.04565 0.06317,0.0689 0.98831,-0.443835 1.911127,-1.043013 2.748592,-1.802395 1.713802,-1.553847 3.165422,-3.475233 4.430915,-5.401902 2.330493,-3.548572 4.310071,-7.494693 7.458169,-10.415765 2.557817,-2.373253 5.728944,-3.850803 9.055775,-4.778419 -0.01394,-0.09722 0.02324,-0.200783 0.09042,-0.269683 0.170916,-0.175209 0.292817,-0.235867 0.513592,-0.129558 0.01754,0.0087 0.0281,0.0205 0.03528,0.03318 l 0.324637,-0.554894 c 0.1772,-0.30109 0.359156,-0.604377 0.422193,-0.684041 0.377747,-0.47575 0.766479,-0.947906 1.161127,-1.410129 0.669085,-0.78263 1.431553,-1.554904 2.314443,-2.097652 1.93309,-1.188 3.96528,-0.515695 5.95267,0.133573 1.20085,0.392478 2.39768,0.797636 3.59641,1.196032 l 0.12365,0.0404 c 0.89385,0.287299 1.9398,0.538596 2.33952,1.485976 0.15824,0.374936 0.18274,0.764032 0.10901,1.141503 8.48958,-2.159788 17.91888,-1.167499 26.20331,1.36786 0.31796,0.09722 0.63549,0.358872 0.70247,0.702528 0.94922,4.869722 1.37197,9.863718 0.94246,14.816501 -0.37056,4.275194 -1.31746,8.46479 -3.10183,12.378787 l -0.10145,0.220989 c -1.67694,3.627296 -4.33477,8.098766 -8.39383,9.235666 -2.45092,0.68646 -5.16169,0.28173 -7.66141,0.15597 -2.42936,-0.12237 -4.91261,-0.14012 -7.31894,-0.52224 -2.1431,-0.34028 -4.02085,-1.30129 -5.34528,-3.0445 -1.14254,-1.50397 -1.74423,-3.32159 -2.23712,-5.129682 -0.22563,0.07186 -0.44979,0.148157 -0.67035,0.234599 -0.93106,0.363734 -1.71993,0.950865 -2.43317,1.641763 -1.50612,1.45916 -2.67444,3.23134 -4.250281,4.62371 -1.426479,1.2605 -3.051972,2.24074 -4.795563,2.99441 -3.61295,1.5617 -7.488811,2.1858 -11.310505,3.01347 l -0.266538,0.0581 c -2.877042,0.63151 -5.813662,1.40695 -8.353098,2.90543 -0.04965,0.44109 -0.250564,0.85618 -0.572535,1.12798 0.447887,0.42079 0.637605,1.08718 0.244014,1.71236 -1.09941,1.74543 -2.993134,2.73854 -4.693213,3.85475 l -0.11059,0.073 c -1.672395,1.10916 -3.359366,2.19635 -5.060071,3.26135 -3.457394,2.16549 -6.987042,4.21178 -10.566549,6.16804 -5.757253,3.14637 -11.638099,6.11437 -17.625422,8.80655 0.359366,1.76868 0.228055,3.59244 0.498163,5.37294 l 0.04141,0.25405 c 0.115387,0.66072 -0.04048,1.21361 -0.495457,1.64531 l -0.04814,0.0442 8.46e-4,-0.006 -0.04268,0.0391 -0.01426,0.012 0.0048,-0.004 c -0.05245,0.048 -0.106558,0.0927 -0.161708,0.13107 l -0.07026,0.0452 v 0 c -0.438216,0.26641 -1.002401,0.26334 -1.45108,0.0282 l -0.05124,-0.0282 -0.0862,-0.0495 c -0.592816,-0.34112 -1.001619,-1.18631 -0.755704,-1.85777 0.604437,-1.65023 0.832817,-3.41141 1.390986,-5.07262 l -0.442817,0.19803 v 0 l -0.58364,0.25448 c -6.312239,2.73059 -13.323859,5.03004 -20.2015,3.16855 -3.038874,-0.82278 -5.8791557,-2.56304 -7.3996486,-5.39957 -1.4961972,-2.7911 -1.7076761,-6.03194 -1.7871127,-9.13668 -0.098028,-3.83199 0.1073239,-7.72253 0.6124648,-11.52155 0.3390845,-2.55015 0.7491549,-5.14849 1.3816901,-7.67222 -0.3253521,-0.28723 -0.564507,-0.69915 -0.627676,-1.20935 -0.2985212,-2.41045 0.2239436,-4.91643 0.5438028,-7.31441 0.3124648,-2.341335 0.657676,-4.678024 1.0480986,-7.007527 0.7881906,-4.704071 1.7040357,-9.398584 2.770303,-14.047868 1.897606,-8.274575 4.403451,-16.402051 7.420352,-24.335295 l 0.264199,-0.691036 c 2.787776,-7.251163 6.015601,-14.34777 10.510238,-20.717904 2.15007,-3.047671 4.422887,-5.810865 7.460915,-8.007006 2.846198,-2.057706 6.05662,-3.539272 9.369719,-4.671686 3.31669,-1.133261 6.725704,-1.892642 10.194929,-2.36501 3.52331,-0.479765 7.242254,-0.773965 10.528944,-2.219601 -0.415775,-0.745644 -0.05894,-1.752305 0.640775,-2.21474 2.354788,-1.556383 4.532324,-3.581119 6.642887,-5.4519919 z M 149.23732,76.914451 c 0.0987,-0.149847 0.33296,-0.05516 0.28965,0.12216 -1.14528,4.693879 -2.22042,9.397269 -2.92246,14.18076 -1.26731,8.633595 -1.03419,17.379939 -0.93059,26.077389 l 0.005,0.44982 c 0.0532,4.68479 0.12719,9.37 0.28205,14.05289 0.0782,2.3667 0.23281,4.75665 0.14873,7.12462 -0.0459,1.28459 -0.3881,2.49964 -0.50937,3.7688 -0.10626,1.1098 -0.0116,2.23672 0.0414,3.348 0.0355,0.73888 -1.05465,0.70739 -1.1288,0 l -0.0948,-0.91497 c -0.12318,-1.15792 -0.27543,-2.30876 -0.65476,-3.41708 -0.45613,-1.33298 -0.675,-2.64209 -0.83324,-4.04165 -0.24238,-2.14464 -0.35016,-4.31076 -0.44371,-6.47049 l -0.064,-1.49382 c -0.39063,-9.02555 -0.37694,-18.09345 0.25546,-27.10955 l 0.0462,-0.64392 c 0.62619,-8.522485 1.71274,-17.730806 6.51295,-25.032959 z m -24.413,-53.71398 c -0.29916,-0.123006 -0.19437,-0.575507 0.1369,-0.496673 l 0.60244,0.14376 c 4.41434,1.057747 8.74857,2.203772 12.86883,4.172013 4.12288,1.969362 7.61345,4.909456 10.38697,8.524814 5.39155,7.027609 7.63204,15.568274 9.40077,24.100908 1.96564,9.481386 3.75528,18.997433 5.73803,28.475859 l 0.36819,1.765565 c 1.83465,8.828019 3.56683,17.661043 4.84315,26.593633 l 0.0917,0.64785 c 1.28708,9.18561 2.06126,18.68928 0.65684,27.89881 -0.27782,1.82205 -3.30866,1.36828 -3.19014,-0.43179 0.34225,-5.20408 0.58732,-10.38089 0.35049,-15.5966 -0.23704,-5.21676 -0.72612,-10.41069 -1.45521,-15.5818 -0.61355,-4.35176 -1.52817,-8.64936 -2.33757,-12.96653 l -0.12687,-0.681834 C 162.4811,96.09654 161.78239,92.428277 161.08523,88.75977 l -1.04184,-5.492556 c -1.56148,-8.224283 -3.15351,-16.455772 -4.95243,-24.628371 l -0.10676,-0.480902 c -1.76046,-7.862682 -4.35587,-16.098873 -9.63648,-22.342605 -5.35881,-6.336493 -13.03014,-9.527671 -20.52338,-12.614865 z m -19.47191,83.398339 c 0.12888,-0.28722 0.57972,-0.25573 0.71831,0 0.54304,1.00232 0.60339,2.28173 0.70604,3.41325 l 0.0108,0.11651 c 0.13056,1.38075 0.24612,2.76615 0.3169,4.15135 0.13415,2.62898 0.19838,5.25459 0.19014,7.88695 -0.008,2.69768 -0.0628,5.39218 -0.2081,8.08584 l -0.0394,0.72178 c -0.1327,2.34084 -0.35525,4.95183 -1.46711,6.99821 -0.40415,0.74417 -1.50338,0.52542 -1.73746,-0.22699 -0.7669,-2.46349 -0.3731,-5.38436 -0.17641,-7.90746 l 0.15273,-1.96875 c 0.15124,-1.96898 0.29547,-3.9387 0.40987,-5.90996 0.15676,-2.69704 0.28606,-5.39641 0.4105,-8.09472 0.0404,-0.8764 0.0841,-1.75308 0.13031,-2.62948 l 0.071,-1.31431 c 0.0606,-1.09945 0.0556,-2.30583 0.5119,-3.32222 z m -86.228399,3.49141 0.339495,-0.32808 c 1.042183,-1.02029 2.359184,-2.59167 3.89986,-2.49421 0.614366,0.0389 1.005845,0.54908 0.878451,1.15376 -0.272113,1.29261 -1.590211,1.96344 -2.539014,2.75262 -1.039437,0.86421 -2.019085,1.78803 -2.996831,2.72072 -0.867418,0.82699 -1.701617,1.67752 -2.515804,2.55457 l -0.304407,0.33015 c -0.291849,0.31859 -2.370111,2.19913 -2.145405,2.68703 l 0.01224,0.0218 c 0.06254,0.0934 -0.04162,0.22192 -0.145352,0.18916 -0.897464,-0.28363 -0.841478,-1.05316 -0.502183,-1.83283 0.651972,-1.49805 1.793662,-2.88387 2.790634,-4.16318 0.994278,-1.27622 2.070443,-2.46459 3.228321,-3.59155 z M 108.6045,72.522106 c -0.69401,-1.640924 -3.25056,-1.606474 -4.70197,-1.508407 -3.65493,0.247068 -7.609438,1.172148 -10.861481,2.881127 -3.371545,1.771753 -5.642607,4.61061 -7.674706,7.74974 l -0.09508,0.147363 c -1.980634,3.080008 -3.888169,6.726012 -6.989578,8.843742 -1.579648,1.078943 -3.424225,2.064047 -5.340845,2.490763 -0.13162,0.231429 -0.344789,0.41467 -0.624296,0.481245 l -0.129931,0.02974 c -0.545875,0.120573 -1.393926,0.254001 -2.126407,0.174208 0.0049,0.35845 0.0011,0.714153 0.01014,1.053793 0.02577,0.973268 0.03676,1.950763 0.03676,2.924665 4.22e-4,2.040587 -0.109226,4.085195 -0.02408,6.125575 0.07542,1.80472 0.330211,3.69038 1.196409,5.30361 0.635281,1.18356 1.473802,1.96683 2.485986,2.71458 2.489999,-1.51813 5.305563,-2.44342 8.163168,-3.13918 3.455916,-0.84139 6.994437,-1.40295 10.371761,-2.5438 1.625493,-0.5493 3.18824,-1.26812 4.604155,-2.24433 1.502746,-1.03669 2.650563,-2.4392 3.831555,-3.81107 l 0.18459,-0.21315 c 1.20526,-1.382817 2.52037,-2.706007 4.22372,-3.455687 1.46683,-0.645886 3.40014,-0.760861 4.68275,-1.760125 0.67056,-0.522881 0.72676,-1.281628 0.79732,-2.058552 -0.82141,0.117511 -1.69099,-0.0708 -2.50965,-0.166755 l -0.42416,-0.04981 c -0.77413,-0.09201 -1.53045,-0.19315 -2.29253,-0.390226 -0.14155,-0.03656 -0.14155,-0.250027 0,-0.286591 0.90064,-0.232697 1.79324,-0.33182 2.71669,-0.440031 l 0.2169,-0.02706 c 0.83541,-0.109604 1.71351,-0.275027 2.53296,-0.09109 0.14704,-0.559655 0.35937,-1.093949 0.65725,-1.629088 0.4181,-0.751773 1.2093,-1.604149 1.3162,-2.482309 0.0319,-0.262286 -0.0291,-0.571491 -0.15275,-0.803343 l -0.0426,-0.07903 c -0.0519,-0.09334 -0.11349,-0.187201 -0.20353,-0.245392 -0.01,0.01162 -0.0311,0.02494 -0.0769,0.03931 -0.63064,0.198669 -1.18078,-0.110114 -1.47275,-0.586075 -1.23951,0.153863 -2.59225,0.102083 -3.75465,0.153441 l -1.17527,0.05687 c -1.2558,0.0576 -2.56866,0.08281 -3.74874,-0.170996 -0.16479,-0.0353 -0.21465,-0.309629 -0.0496,-0.38022 1.45078,-0.620735 3.21063,-0.818771 4.76387,-1.057174 0.86747,-0.133362 1.74127,-0.23481 2.61127,-0.352109 0.5793,-0.0782 1.19409,-0.207335 1.7943,-0.238403 1.50486,-1.874044 0.69401,-4.830411 -1.40029,-5.637347 -0.76288,0.335413 -1.44887,0.140337 -2.28232,0.06869 -0.83197,-0.07144 -1.66606,-0.119836 -2.50141,-0.116243 -1.67387,0.0074 -3.44767,0.447852 -5.10528,0.25827 -0.269581,-0.03107 -0.520144,-0.389941 -0.252046,-0.6089 1.268876,-1.035841 3.087326,-1.373586 4.697946,-1.59433 l 0.33382,-0.04469 c 0.54,-0.0708 1.19662,-0.174153 1.87775,-0.235656 0.15401,-0.30054 0.43035,-0.527742 0.84549,-0.584172 0.12338,-0.01691 0.24739,-0.02684 0.3712,-0.03741 l -0.002,-0.01226 v 0 c 1.01239,-0.04861 0.96845,-1.759279 0.69084,-2.415733 z M 39.294148,104.52582 c -0.01789,0.0276 -0.03746,0.0539 -0.05829,0.0792 l -0.03213,0.0372 0.166479,-0.0676 z M 126.27112,68.855389 c -4.26127,-0.457996 -8.52866,-0.361409 -12.80261,-0.238403 -0.34183,1.118466 -1.53169,2.071656 -2.68457,2.107585 0.90295,1.374834 0.99612,3.235562 0.36295,4.693668 1.3443,0.53535 2.50247,1.496994 3.20557,2.866544 0.975,1.898559 0.84739,4.011217 -0.1162,5.765847 0.82246,0.744799 1.30775,1.954356 1.25915,3.09438 -0.0543,1.271272 -0.81169,2.35719 -1.44105,3.409714 -0.68007,1.138333 -0.70289,2.140556 -0.91183,3.415421 -0.30571,1.8658 -1.56359,2.99737 -3.18212,3.704125 l 0.0861,0.338574 c 0.41728,1.624881 0.93646,3.339386 2.1291,4.527556 1.5342,1.52856 3.91427,1.51434 5.94128,1.6112 l 0.0978,0.005 c 1.85611,0.0928 3.71142,0.20162 5.56688,0.30678 l 1.39164,0.0779 c 2.13634,0.11751 4.18796,0.13167 5.93197,-1.2812 2.84726,-2.30626 4.79916,-6.123034 6.03465,-9.501891 2.5931,-7.09207 2.62416,-14.875045 1.43387,-22.261315 -3.9919,-1.287123 -8.1338,-2.193182 -12.30253,-2.641245 z m -35.437772,11.76616 0.03133,0.0023 c 0.877394,0.10018 1.480141,0.810951 1.694789,1.654027 0.311831,1.225409 0.158873,2.333307 0.909084,3.439515 0.771761,1.137487 1.246268,2.048195 1.358451,3.453464 0.04606,0.578254 0.02493,1.155029 0.153592,1.721025 l 0.09329,0.39655 c 0.09907,0.42284 0.180136,0.830115 0.130861,1.284108 -0.045,0.414035 -0.246549,0.736555 -0.66169,0.869283 -1.352746,0.432846 -2.397253,-0.564305 -2.74669,-1.825432 -0.301901,-1.0893 0.101197,-2.387413 -0.324718,-3.410349 -0.235986,-0.567052 -0.671197,-1.041322 -0.917113,-1.612179 -0.243591,-0.565785 -0.365915,-1.156932 -0.405,-1.771961 -0.07416,-1.163272 0.954296,-2.560932 0.380493,-3.614936 -0.122185,-0.224876 0.01619,-0.592203 0.30332,-0.585405 z M 72.864465,68.617261 c 0.916056,-0.1862 1.955281,-0.612916 2.858662,-0.25827 0.464366,0.182607 0.693803,0.749025 0.301479,1.142771 -0.681163,0.683072 -1.671147,0.721137 -2.588612,0.882208 l -0.08075,0.01455 c -1.084859,0.200783 -2.171619,0.39121 -3.259859,0.571703 -2.047394,0.339217 -4.099648,0.639123 -6.159084,0.894012 -2.115212,0.261863 -4.236338,0.494982 -6.360423,0.670403 l -0.822299,0.06749 c -1.794251,0.143552 -3.661222,0.25183 -5.421715,-0.02311 -0.255845,-0.03994 -0.214648,-0.412556 0,-0.477863 1.928662,-0.583961 4.044296,-0.740571 6.03824,-0.98764 2.119859,-0.263131 4.236126,-0.541056 6.346901,-0.870763 2.107394,-0.329284 4.212042,-0.682661 6.308873,-1.073237 0.947747,-0.176266 1.894014,-0.360352 2.838592,-0.552258 z m 33.053765,-1.874952 c -0.80387,-0.284689 -1.68824,-0.706544 -2.55929,-0.565362 -1.50212,0.243476 -2.83902,1.707499 -4.028031,2.671679 l 0.597017,-0.116089 c 3.054794,-0.587356 7.100134,-1.220094 9.664464,0.722876 0.007,-0.0112 0.0116,-0.0224 0.019,-0.0336 0.20704,-0.314489 0.44683,-0.559867 0.70859,-0.828916 0.025,-0.0236 0.0492,-0.04798 0.073,-0.07275 l 0.14122,-0.150434 -0.32301,-0.11194 c -0.69185,-0.244647 -1.51147,-0.560568 -1.64104,-0.606681 l -0.009,-0.0031 c -0.88204,-0.298849 -1.76514,-0.594317 -2.64296,-0.905636 z M 80.819282,2.6874669 c -0.125704,-1.6174638 2.390704,-1.6041487 2.515352,0 0.271901,3.5020744 -0.515916,6.9709668 -2.211549,10.0412521 -0.01247,0.0224 -0.0262,0.04227 -0.0393,0.06341 1.060563,0.552046 2.133169,1.08169 3.229648,1.555115 1.402605,0.60573 2.831619,1.157354 4.286197,1.625284 1.315774,0.423546 2.936831,0.590724 4.043028,1.472054 2.332606,1.858192 1.456268,5.71449 1.007535,8.21413 l -0.07001,0.394598 c -0.223431,1.286284 -0.385029,2.605956 0.157049,3.840439 0.578874,1.318614 1.749507,2.296743 2.793803,3.240211 l 0.210921,0.191319 c 0.925149,0.843127 1.982263,1.867656 2.66084,3.010638 0.619434,-1.281205 1.463874,-2.328235 2.356684,-3.506935 0.63698,-0.841175 0.18359,-1.118466 -0.27401,-1.940196 -0.44049,-0.790873 -0.65556,-1.633949 -0.51782,-2.536204 0.25416,-1.666285 1.58535,-2.869925 2.91043,-3.774293 1.56485,-1.06753 3.3114,-1.858403 4.92908,-2.851538 3.32408,-2.040376 6.56134,-4.373261 9.47789,-6.964204 0.0805,-0.07165 0.21993,0.02219 0.15549,0.120047 -2.30387,3.505668 -5.00535,6.534951 -8.32542,9.106239 -1.34624,1.042617 -2.76044,1.907465 -4.1841,2.816581 l -0.4093,0.262751 c -0.57163,0.370437 -1.28462,0.865528 -1.54308,1.49619 -0.26007,0.634263 0.29451,1.113182 0.59303,1.638599 0.94795,1.668515 0.4906,3.225307 -0.63323,4.640297 l -0.0523,0.06521 c -1.11676,1.376736 -1.9631,2.657096 -2.36788,4.415953 -0.86976,3.778263 0.3417,7.71383 1.60984,11.260847 l 0.0501,0.139811 c 0.68598,1.911875 1.41507,3.8098 2.01105,5.752321 l 0.16399,0.53703 c 0.54,1.78732 0.9822,3.550139 0.37643,5.387541 -0.20598,0.624963 -1.05802,0.772697 -1.4119,0.184509 -1.24838,-2.074192 -1.55957,-4.570239 -2.34211,-6.850708 -0.76268,-2.22256 -1.63838,-4.404963 -2.375068,-6.636611 -0.948591,-2.873307 -1.58345,-5.966207 -1.238873,-8.980063 -0.01014,-0.01754 -0.02134,-0.03403 -0.02979,-0.05263 L 98.090413,39.538055 C 97.431946,38.107272 96.795966,36.857726 95.598507,35.717291 94.349493,34.5276 92.993789,33.474441 92.010972,32.034301 89.87619,28.906063 91.196456,25.426183 91.454314,22.005723 l 0.02951,-0.419436 c 0.04684,-0.710178 0.07251,-1.675331 -0.391229,-2.166851 -0.521619,-0.553316 -1.744859,-0.694497 -2.436971,-0.939452 -1.788592,-0.633206 -3.551198,-1.37103 -5.22993,-2.25701 -1.598028,-0.843288 -3.145986,-1.77492 -4.587253,-2.866333 L 78.107926,12.80687 c -1.152595,-0.869994 -2.34777,-1.820038 -3.120264,-3.0042954 -0.08916,-0.136321 0.06232,-0.3563366 0.223732,-0.2910294 1.289578,0.5235148 2.467817,1.3562348 3.674367,2.0807438 0.0188,-0.04417 0.04056,-0.08877 0.06528,-0.133573 1.492817,-2.7027481 2.106761,-5.6971591 1.868241,-8.7712491 z M 122.01296,21.204965 c 0.5138,-1.409495 2.85549,-1.30065 2.76211,0.37409 -0.0716,1.286613 -0.61764,2.447918 -1.11692,3.616126 l -0.0533,0.125197 c -0.51549,1.217166 -1.11085,2.359937 -1.82324,3.475444 -1.3612,2.132525 -2.95563,4.111609 -4.65866,5.979312 -1.54395,1.693338 -3.57042,2.728743 -5.90557,2.556704 -0.98387,-0.07249 -1.97704,-0.322943 -2.83922,-0.814544 -1.02401,-0.584172 -2.13613,-2.338168 -3.44261,-1.913354 -0.12634,0.041 -0.24422,-0.144141 -0.135,-0.231852 1.50824,-1.215052 3.22014,0.668924 4.66416,1.122905 2.17584,0.683718 4.40873,-0.07228 5.80922,-1.831985 1.46219,-1.837268 2.80796,-3.89434 4.03691,-5.894771 0.62408,-1.015749 1.19345,-2.069965 1.68528,-3.156517 0.49626,-1.096696 0.60908,-2.2885 1.01683,-3.406755 z m -3.50732,-8.674323 c -0.0634,-0.194654 0.17831,-0.379797 0.34923,-0.268626 0.99105,0.645464 1.84985,1.498262 2.76401,2.245808 1.0143,0.829338 2.03599,1.641769 3.07352,2.44173 1.51247,1.166442 -0.24169,3.313761 -1.5731,2.03953 -1.82197,-1.743006 -3.81739,-4.022207 -4.61366,-6.458442 z m -5.44122,-6.8222819 c 0.40263,-1.5531647 2.78395,-0.91267 2.43692,0.6223469 l -0.0113,0.046788 c -0.65727,2.5355058 0.27883,5.116808 2.27719,6.760557 l 0.0736,0.05972 c 1.26423,1.012157 -0.5269,2.781581 -1.77866,1.779147 -2.73275,-2.187898 -3.86958,-5.9044934 -2.99768,-9.268556 z"
           id="ðŸ–-Ink-2"
           fill="#000000" /></g><g
         id="head/Twists-2"
         transform="translate(78.591549,38.043053)"
         fill-rule="evenodd"><path
           d="M 86.212732,53.274075 C 85.428507,47.013668 82.96512,40.366821 80.374346,34.530383 74.548853,22.190484 61.212169,20.491531 49.256324,17.947296 37.458296,16.229018 24.964986,14.677496 13.344845,18.105809 6.8122394,19.706787 4.2607606,27.489973 5.2917465,33.632024 c 0.5883803,3.827343 2.3298591,7.449675 3.8148591,10.996767 2.9516194,7.2844 4.8242954,15.083014 4.8274644,22.969762 -0.202605,5.153988 -0.929788,11.036712 4.990775,13.219749 5.633873,2.802716 6.109859,10.400337 13.164296,14.711037 2.852535,5.780221 10.622746,6.288941 16.215211,7.629751 3.534718,0.67674 7.109366,1.17489 10.693732,1.49657 10.378733,1.33045 18.68155,-1.67812 24.114507,-10.927236 C 86.748296,88.099531 89.45569,81.600087 88.786817,74.778122 88.12069,67.594326 87.010901,60.448149 86.212732,53.274075 Z"
           id="path317"
           fill="#ffffff" /><path
           d="m 49.345901,2.9502176 c 0.592395,-0.6716712 1.505071,-0.4412994 2.059015,0.089824 0.360633,0.1063092 0.71007,0.2643992 1.04007,0.473636 0.745775,-0.095742 1.527676,-0.095742 2.259084,-0.0689 0.177465,-0.099546 0.367606,-0.1881018 0.574648,-0.2641879 1.478873,-0.5408454 2.788521,-0.26609 3.868733,0.4579961 0.520352,-0.4924462 1.17676,-0.8014403 2.015915,-0.7547319 0.748944,0.041847 1.282606,0.3943797 1.74,0.8587163 0.456127,-0.6579335 1.193451,-1.1273425 2.112043,-1.1926497 1.283873,-0.091303 2.518098,0.4237573 3.541056,1.221182 0.595986,-0.6839296 1.408521,-1.0770411 2.314014,-1.0808454 0.595774,-0.1082114 1.224507,-0.065519 1.792605,0.1060978 0.824789,0.249182 1.549015,0.7160548 2.125775,1.3219961 0.912465,-0.8741448 2.029437,-1.5031233 3.317324,-1.4113973 1.666901,0.1204697 3.048592,1.3465127 3.690845,2.8555538 1.128169,0.4520783 2.169718,1.0969081 3.040141,2.0162818 0.04648,0.048399 0.09085,0.099123 0.137324,0.1500587 0.469014,0.1730959 0.910563,0.4184736 1.299296,0.7416282 1.23169,1.0252603 1.506338,2.5089388 1.098591,3.9628178 0.05704,0.232697 0.105634,0.469409 0.15,0.70591 1.153521,0.175421 2.201409,0.841385 2.797183,1.925612 0.815493,1.487907 0.65493,3.449026 -0.228169,4.869511 -0.379647,0.611014 -0.861549,1.125863 -1.402817,1.576039 0.612043,1.390685 0.318381,3.050208 -0.66845,4.175014 -0.240423,0.387828 -0.535564,0.737824 -0.867676,1.054638 0.366549,1.437816 -0.285423,2.921284 -1.586831,3.689542 l -0.111315,0.278716 c -0.01871,0.04632 -0.0377,0.09241 -0.05728,0.138067 -0.01437,0.05918 -0.03211,0.116454 -0.04965,0.174152 -0.03106,0.5102 -0.199014,1.010889 -0.532394,1.482623 -0.682521,0.966772 -1.528504,1.597211 -1.977079,2.725791 l -0.04496,0.118561 c -0.192888,0.534082 -0.815705,0.91092 -1.346409,0.746067 2.946549,6.053283 4.491338,12.788806 5.551902,19.389698 0.528829,3.293102 0.936963,6.597535 1.267922,9.914692 l 0.324614,3.30328 c 0.285495,2.936181 0.539641,5.882079 0.541266,8.827977 0.0042,6.664086 -1.901408,13.074129 -5.991549,18.37712 -3.86831,5.013016 -9.342253,8.646126 -15.526056,10.076966 -6.384507,1.47523 -13.873944,0.89402 -19.599296,-2.48336 -1.688028,-0.99314 -0.209155,-3.38161 1.508451,-2.58249 3.251408,1.51327 6.555633,2.63765 10.159859,2.88916 3.51338,0.24707 7.035211,-0.19254 10.366901,-1.34229 5.511972,-1.90405 10.202113,-5.892233 13.216902,-10.858965 1.485211,-2.447647 2.560563,-5.104109 3.133098,-7.911053 0.712676,-3.498439 0.605304,-7.114478 0.343439,-10.657658 l -0.01809,-0.241465 c -0.517605,-6.826826 -1.2,-13.69571 -2.302816,-20.454481 -0.974789,-5.976775 -2.473733,-11.832447 -4.419719,-17.55856 -0.762253,-0.671249 -1.614929,-1.226677 -2.527394,-1.648532 -6.681761,-0.279194 -13.375564,-0.197613 -20.048662,0.263553 -5.691112,0.395881 -11.354652,1.065628 -16.975406,2.04177 L 39.84984,35.54466 c -1.244366,0.221706 -2.626056,0.348517 -3.798591,0.849628 -1.005634,0.431155 -1.413381,1.259648 -1.666902,2.278145 -0.638028,2.57636 -0.735211,5.395984 -0.842958,8.037863 -0.105633,2.582489 0.133099,5.186536 -0.07394,7.760571 -0.175352,2.15366 -0.726761,4.358043 -2.321831,5.915906 -0.834507,0.815601 -1.861268,1.26155 -2.824648,1.880807 -0.62324,0.399663 -0.887324,0.811585 -0.807042,1.551311 0.173239,1.618943 1.47676,3.658473 0.01268,5.044931 -0.257747,0.243053 -0.703522,0.274756 -0.957043,0 -0.604225,-0.657088 -1.438732,-1.158199 -2.154929,-1.688689 -0.3,-0.219593 -0.0507,-0.64652 0.289436,-0.494559 0.447888,0.200994 0.904226,0.437706 1.371127,0.644829 -1.030986,-0.849628 -2.497183,-1.266199 -3.71831,-1.513479 -0.614788,-0.122583 -1.261267,-0.158513 -1.901408,-0.101237 -0.47324,0.225934 -0.957042,0.435382 -1.440845,0.64018 -0.614789,0.258059 -1.235916,0.492446 -1.861268,0.714576 -2.169718,1.76879 -3.204929,4.645479 -2.752817,7.458551 0.247183,1.553214 0.963381,3.242114 2.313381,4.148807 1.599295,1.073659 3.741549,0.612704 5.469718,1.409706 1.61831,0.745855 2.602817,2.252994 3.340141,3.81276 l 0.307386,0.649393 c 0.684353,1.437773 1.387807,2.837399 2.322895,4.145933 1.081691,1.515382 2.406338,2.876478 3.851409,4.045456 0.701056,0.565715 1.448269,1.074599 2.220482,1.538049 l 0.211208,0.125278 c 0.78169,0.45863 1.341549,0.895914 1.394366,1.866012 0.0169,0.33816 -0.196479,0.646732 -0.471127,0.822153 -1.183098,0.750293 -2.359859,-0.188102 -3.344366,-0.843288 -1.062676,-0.70591 -2.078873,-1.500376 -3.019014,-2.366912 -1.787324,-1.644305 -3.333803,-3.597182 -4.523239,-5.717237 -0.906338,-1.614505 -1.421831,-3.88652 -2.854226,-5.137714 -0.874648,-0.763186 -2.110563,-0.769315 -3.202817,-0.909018 -1.016197,-0.130826 -1.977464,-0.342176 -2.88169,-0.843076 -3.678169,-2.043757 -4.717605,-6.991468 -3.84507,-10.814795 0.147887,-0.644829 0.35493,-1.27254 0.610563,-1.877002 -1.369014,0.228259 -2.907042,-1.187577 -2.3514082,-2.616516 0.042254,-0.107789 0.090845,-0.209026 0.1373242,-0.312799 C 9.1843521,65.05529 8.4723803,64.155149 8.1343521,62.977717 7.9611127,62.369028 7.9357606,61.753998 8.0266056,61.160104 7.5892817,60.866539 7.2280141,60.462648 6.9956197,59.965975 6.2688591,59.629928 5.624493,59.127126 5.2399859,58.408535 4.7075915,57.41709 4.7751972,56.504057 5.180831,55.681905 5.1237887,55.578554 5.0688591,55.472879 5.0160422,55.364879 3.5266056,54.420355 2.487169,52.792746 2.6054789,50.987814 2.643507,50.389693 2.7913944,49.85075 3.0195634,49.364856 3.0005493,49.303564 2.9815352,49.239948 2.9646338,49.178656 1.7181549,48.544605 0.68716901,47.502859 0.31956338,46.112175 -0.04804225,44.712824 0.38505634,43.317912 1.2512535,42.244253 -0.01635211,41.316636 -0.77902817,40.021059 -0.31635211,38.06163 -0.12832394,37.265051 0.24984507,36.539908 0.76111268,35.929106 0.759,35.910296 0.75477465,35.891274 0.7505493,35.872042 L 0.63195522,35.780026 C -0.93291544,34.544685 -1.8324806,32.970408 -0.87198592,31.034233 -0.441,30.163681 0.17378873,29.556895 0.89632394,29.157443 l 0.0359155,-0.11413 v 0 C 0.4146338,27.933724 0.23928169,26.701552 0.59632394,25.405975 0.88787324,24.338867 1.5787183,23.489028 2.4618169,22.924934 2.402662,22.447071 2.4111127,21.937928 2.5061831,21.386092 2.6646338,20.454249 3.1273099,19.64055 3.8033662,19.063564 3.8287182,18.940769 3.8604082,18.820511 3.8963242,18.69983 4.1244933,17.962429 4.5512538,17.161411 5.04562,16.567306 5.4533665,16.074859 5.9097045,15.895212 6.467451,15.87619 6.433648,15.421998 6.456888,14.961043 6.549845,14.493959 c 0.2852112,-1.441197 1.2021126,-2.796164 2.5605634,-3.411193 0.5577464,-0.251507 1.1450706,-0.325268 1.7112676,-0.264188 0.48169,-1.0144817 1.421831,-1.7497694 2.577465,-1.9082821 0.45,-0.063405 0.86831,-0.059389 1.252817,-0.00211 0.217605,-0.1016595 0.443662,-0.1923288 0.680281,-0.2749667 0.156339,-0.054951 0.314789,-0.1056752 0.47324,-0.1561879 0.534507,-0.6636399 1.238028,-1.1943405 2.059859,-1.5132681 0.948592,-0.369863 1.914084,-0.3320313 2.769718,-0.021346 l 0.272535,-0.057065 v 0 c 0.426761,-0.739726 1.107043,-1.3124853 2.152817,-1.5724462 1.187324,-0.2937769 2.406338,0.1162427 3.340141,0.8625206 0.0042,0 0.0085,0 0.01479,-0.00232 0.488028,-1.092681 1.322535,-1.853542 2.723239,-1.8007045 0.872536,0.033816 1.660564,0.4672955 2.269014,1.0844384 0.338029,-0.042481 0.676057,-0.080525 1.016198,-0.1183562 0.359155,-0.4207984 0.75845,-0.8136986 1.2,-1.1666536 0.722535,-0.5793111 1.662676,-0.5326027 2.19507,0.2829981 0.116197,0.1775342 0.223944,0.3571819 0.33169,0.5368297 l 0.488028,-0.033816 v 0 c 0.574648,-0.7756555 1.358451,-1.2998043 2.431691,-1.341863 0.984507,-0.040368 1.685915,0.4417222 2.220422,1.1157182 0.435211,-0.010567 0.872535,-0.01881 1.309859,-0.025362 0.509155,-0.5896673 1.109155,-1.109589 1.793662,-1.5407436 0.523944,-0.3297065 1.297183,-0.2174795 1.721831,0.2221291 0.286902,0.2988493 0.553944,0.6108024 0.802183,0.9337456 0.63993,-0.7177456 1.504226,-1.1905362 2.427676,-1.3712407 z M 18.251958,70.064419 c 0.98662,-0.562192 2.31338,0.0465 3.26831,0.524148 1.164084,0.581214 2.319718,1.458318 3.03169,2.557339 0.969718,1.49636 -1.309859,2.705284 -2.330282,1.363209 -0.627465,-0.826379 -1.128169,-1.659099 -1.888732,-2.381917 -0.695071,-0.66364 -1.702817,-1.107476 -2.102113,-1.982466 -0.01479,-0.02959 -0.01056,-0.06341 0.02113,-0.08031 z m 0.693095,-36.320733 0.01845,-0.05278 c 0.280563,-0.767835 -0.943944,-1.09881 -1.222183,-0.337315 -0.42169,1.154184 0.06444,2.408971 1.204014,2.907335 0.315845,0.138223 0.67669,0.09025 0.867042,-0.227413 0.15993,-0.267358 0.08577,-0.730638 -0.227324,-0.867382 C 18.943865,34.885642 18.7291,34.390553 18.945053,33.743686 Z M 8.3961127,31.596636 C 9.009,31.05558 8.1096338,30.161357 7.4997042,30.700088 c -0.5691549,0.502591 -0.9912676,1.185253 -0.8816197,1.970419 0.1117606,0.800173 0.7149296,1.365112 1.3751409,1.764353 0.6997183,0.423334 1.3375352,-0.672728 0.6397183,-1.095006 l -0.078391,-0.04797 C 8.261635,33.109894 7.9187887,32.859666 7.8692113,32.501638 7.8166056,32.121208 8.1383662,31.824261 8.3961127,31.596636 Z m 3.4790333,-9.547084 0.04343,-0.03194 c 0.658309,-0.470043 0.02599,-1.570333 -0.63993,-1.095006 -0.610563,0.436016 -1.100282,1.002435 -1.151831,1.783585 -0.05007,0.759171 0.336127,1.417315 0.841056,1.951398 0.561761,0.594105 1.457113,-0.303711 0.896409,-0.896548 -0.546334,-0.577797 -0.65312,-1.208279 0.01086,-1.711484 z"
           id="path319"
           fill="#000000" /></g><g
         id="face/Cheeky"
         transform="translate(112.1831,77.354207)"
         fill="#000000"
         fill-rule="evenodd"><path
           d="m 35.269817,46.78281 c 0.324084,-0.563671 1.070282,-1.085918 1.753099,-1.005816 3.058943,0.358873 3.053661,4.068916 1.872464,6.234834 -1.047253,1.92054 -3.214648,3.047882 -5.383943,2.88324 -2.278944,-0.173095 -4.220705,-1.513479 -5.075282,-3.646215 -0.565141,-1.410763 -0.826268,-4.015233 0.677113,-4.963139 0.02789,-0.01775 0.07394,-0.01331 0.09613,0.01226 0.720845,0.838849 0.749155,2.098285 1.380212,3.032242 0.586901,0.86865 1.498732,1.585973 2.566901,1.69672 0.797746,0.08285 1.604789,-0.205009 1.916831,-0.921487 0.168822,-0.387539 0.149598,-0.597964 0.08614,-0.864696 l -0.05767,-0.231778 C 34.902,48.197074 34.812266,47.578906 35.269817,46.78281 Z m 0.817712,-16.27077 c 1.595362,0.970108 4.026203,3.232209 2.309961,5.637224 -2.020181,2.120581 -4.928786,-0.31081 -6.362095,-1.410433 -1.329032,-0.852215 -2.822274,1.339617 -1.589198,2.334721 10.357127,7.671008 14.560269,-6.307842 6.448244,-7.70212 -0.893164,-0.153644 -1.224887,0.840495 -0.806912,1.140608 z M 19.240458,23.859884 c 0.979225,-1.46973 3.214436,-1.253307 3.753803,0.490755 0.292183,0.944736 -0.111339,1.793942 -0.09042,2.737409 0.01753,0.797002 -0.03465,1.685096 -0.278873,2.456948 -0.556902,1.760125 -2.139296,3.003287 -4.011338,2.951718 -1.865916,-0.05136 -3.509366,-1.232806 -4.290845,-2.896767 -0.784226,-1.670302 -0.618169,-3.398936 -0.04563,-5.097347 0.02746,-0.08158 0.134366,-0.121103 0.198803,-0.05241 0.67676,0.719472 1.172183,1.479012 1.68482,2.284736 l 0.525342,0.825747 c 0.401478,0.621799 0.984965,1.416121 1.734618,1.366228 l 0.112487,-0.0111 c 0.208328,-0.01789 0.176405,0.02347 0.337099,-0.260584 0.07437,-0.13146 0.06085,-0.375781 0.09676,-0.530912 l 0.01246,-0.05241 v 0 l -0.0068,-0.02824 c -0.01586,-0.07513 -0.03159,-0.216702 -0.04438,-0.462371 l -0.0027,-0.05425 c -0.0543,-1.149112 -0.379014,-2.625816 0.314789,-3.667139 z m 24.82219,0.978446 c -0.175564,-1.879749 2.466127,-2.297166 3.344366,-0.90627 0.45805,0.725333 0.591411,1.636476 0.692711,2.499725 l 0.04736,0.409723 c 0.103944,0.886615 0.145141,1.808948 -0.239577,2.635961 -0.605916,1.302552 -1.923591,1.991131 -3.345,1.882075 -1.357394,-0.104407 -2.595845,-0.891687 -3.248662,-2.086873 -0.582042,-1.066474 -1.160704,-3.148697 -0.453803,-4.261033 0.04268,-0.06742 0.128028,-0.07609 0.186549,-0.02409 0.668029,0.59326 0.776831,1.675373 1.174015,2.448281 0.409648,0.797214 1.030986,1.574137 1.972605,1.695241 0.900845,0.11582 1.245,-0.376415 1.015141,-1.235554 -0.296408,-1.109166 -1.034155,-1.863687 -1.145704,-3.057182 z M 19.953993,12.684378 20.385999,12.518851 c 1.480182,-0.559368 3.512332,-1.205933 4.71574,-0.0019 0.742395,0.742473 0.883733,1.836211 0.353874,2.74227 -0.642043,1.097542 -1.793662,1.124595 -2.905775,1.286278 -1.264859,0.183874 -2.551268,0.533448 -3.728873,1.031812 -1.32655,0.561557 -2.557606,1.26155 -3.763733,2.043334 -1.146338,0.742897 -2.288662,1.957104 -3.660845,2.185997 -0.05599,0.0093 -0.119577,-0.01479 -0.134155,-0.0763 -0.311619,-1.342074 0.554367,-2.662802 1.327183,-3.709832 0.935071,-1.267679 2.068099,-2.308156 3.334437,-3.241057 1.222183,-0.900563 2.618662,-1.551311 4.030141,-2.095115 z m 26.887458,4.771571 0.131949,-0.02313 c 0.89759,-0.149485 1.710977,-0.115063 2.387417,0.596102 0.516338,0.542536 0.715352,1.245698 0.469225,1.963021 -0.227112,0.661738 -0.735,1.334043 -1.472112,1.472689 -2.488522,0.468352 -5.24493,0.390998 -7.745916,0.03635 -1.144253,-0.162345 -2.298813,-0.36096 -3.413351,-0.674201 l -0.512771,-0.148709 c -0.930464,-0.265884 -1.99569,-0.543661 -2.671554,-1.228244 -0.242958,-0.246012 -0.102887,-0.598122 0.187817,-0.712039 1.179296,-0.462012 2.795704,-0.216212 4.053169,-0.252353 1.462817,-0.04185 2.927958,-0.151538 4.383803,-0.302653 1.422676,-0.147945 2.799296,-0.469409 4.202324,-0.726834 z"
           id="path322" /></g><g
         id="facial-hair/Full"
         transform="translate(104.57745,109.47938)"
         fill="#000000"
         fill-rule="evenodd"><path
           d="m 24.871426,20.119075 c 1.710473,-4.008736 5.443682,-6.954936 9.741915,-8.032071 3.15637,-0.788968 6.46887,-0.763791 9.686426,-0.450658 1.685788,0.162914 3.493949,0.296419 5.082683,0.922685 1.356648,0.535076 2.462222,1.546411 3.293511,2.733565 0.989531,1.406771 1.66258,3.016867 2.135192,4.667162 0.06709,0.234638 0.130179,0.470969 0.189044,0.708569 -0.205501,1.245127 -0.641823,2.304913 -1.794658,3.087745 -1.124984,0.764425 -2.467285,1.077135 -3.805366,1.188213 -0.131234,-0.06305 -0.258037,-0.127793 -0.374291,-0.194227 -2.085188,-1.194137 -3.552815,-4.016142 -6.18467,-3.634247 -2.348711,0.341061 -3.894825,3.297417 -5.291561,5.031073 -4.48348,0.522594 -8.963583,-0.825147 -12.611553,-3.389875 -0.185247,-0.87783 -0.196008,-1.763066 -0.06667,-2.637934 m 33.17606,-3.040986 c -0.35868,-1.006892 -0.810404,-1.982047 -1.345889,-2.900711 -1.770184,-3.038025 -4.4877,-5.4586691 -7.713695,-6.8423782 -7.63141,-3.268854 -17.505614,-0.9645764 -23.668552,4.3965562 -2.105231,1.832674 -4.233882,4.525828 -4.877604,7.422731 -0.19221,0.03808 -0.373659,0.13816 -0.523038,0.279069 C 15.466035,16.628912 10.880649,13.93068 7.2925991,10.043177 4.6869062,7.2186328 2.8745256,3.8759387 1.7647325,0.20276233 1.674008,-0.09958022 1.1866274,-0.05536077 1.2013965,0.27914138 1.2056162,0.35742461 1.209836,0.43549627 1.2140557,0.5137795 1.1676385,0.36990761 0.94821177,0.44395932 0.93133279,0.58359969 0.33423881,5.0457441 -0.41265614,9.7765904 0.27516237,14.262008 c 0.41142518,2.676441 1.62671183,4.635849 3.25131393,6.751612 1.7406449,2.267886 3.7112661,4.377302 5.7261945,6.400183 1.2785832,1.284057 2.6141322,2.765091 4.1796582,3.706606 1.82082,1.093849 3.886385,1.925556 5.829578,2.769534 1.976951,0.861115 3.98344,1.656642 6.027906,2.346381 4.086824,1.383709 8.310789,2.340034 12.6086,2.758955 3.441202,0.334291 7.374005,0.698413 10.671736,-0.596645 2.527628,-0.992293 4.567875,-2.786249 6.186147,-4.944539 1.761744,-2.350612 3.154471,-5.028111 3.924363,-7.851597 0.800064,-2.93287 -0.464594,-8.051536 -0.633173,-8.524409"
           id="path325" /></g><g
         id="accessories/*-None-4"
         transform="translate(88.521127,88.978474)" /></g></g></svg>
